<?xml version="1.0" encoding="UTF-8" standalone="no"?><!DOCTYPE svg PUBLIC "-//W3C//DTD SVG 1.1//EN" "http://www.w3.org/Graphics/SVG/1.1/DTD/svg11.dtd"><svg width="100%" height="100%" viewBox="0 0 4267 2500" version="1.1" xmlns="http://www.w3.org/2000/svg" xmlns:xlink="http://www.w3.org/1999/xlink" xml:space="preserve" xmlns:serif="http://www.serif.com/" style="fill-rule:evenodd;clip-rule:evenodd;stroke-linecap:round;stroke-linejoin:round;stroke-miterlimit:1.5;"><path d="M-72.77,1243.25c-0,-0 -220.614,-139.757 282.308,-106.711c502.923,33.046 322.314,520.131 322.314,520.131c-0,0 -121.917,483.078 183.041,440.581c304.958,-42.497 537.204,0 537.204,0c0,0 288.08,96.674 247.457,403.351c-40.623,306.677 -1572.32,-0 -1572.32,-0l-0,-1257.35Z" style="fill:#caffd0;"/><path d="M4352.28,1140.36c-0,-0 218.413,143.171 -283.935,102.306c-502.348,-40.865 -314.183,-525.081 -314.183,-525.081c-0,-0 129.415,-481.124 -176.167,-443.375c-305.582,37.748 -537.139,-8.356 -537.139,-8.356c-0,-0 -286.541,-101.144 -241.152,-407.151c45.388,-306.008 1572.13,24.457 1572.13,24.457l-19.557,1257.2Z" style="fill:#caffd0;"/><path d="M841.905,2681.16c0,0 551.421,292.5 545.29,-79.211c-6.13,-371.711 -452.809,-340.154 -452.809,-340.154c0,-0 -506.221,14.462 -716.426,-194.602c-161.127,-160.252 -338.911,-247.388 -338.911,-247.388c-0,-0 57.272,-662.392 59.95,-346.502c2.01,237.054 -59.95,1158.01 -59.95,1158.01l962.856,49.847Z" style="fill:#b4a0e5;"/><path d="M0,1131.48c0,-0 335.151,-341.766 657.591,-239.239c322.44,102.527 412.255,0 412.255,0c-0,0 195.004,-125.317 96.972,-250.004c-98.032,-124.687 151.915,-280.41 151.915,-280.41c0,0 166.288,-27.714 229.189,-75.671c62.902,-47.957 109.685,-286.155 109.685,-286.155l-1657.61,0l0,1131.48Z" style="fill:#c9e4e7;"/><path d="M4245.06,1505.02c0,0 -308.705,328.172 -613.94,237.794c-305.236,-90.377 -387.755,7.867 -387.755,7.867c0,-0 -181.021,121.708 -86.434,237.232c94.587,115.524 -137.531,266.909 -137.531,266.909c0,-0 -155.875,29.266 -214.123,75.618c-58.248,46.352 -97.7,271.512 -97.7,271.512l1559.1,-31.629l-21.612,-1065.3Z" style="fill:#c9e4e7;"/><path d="M3318.74,2500c0,0 10.397,-323.24 278.446,-464.447c257.396,-135.595 255.034,-135.093 255.034,-135.093c0,0 229.188,-80.586 180.698,-258.351c-49.761,-182.423 145.23,-239.409 145.23,-239.409l88.523,-61.043l-0,1158.34l-947.931,0Z" style="fill:#ca3cff;"/><path d="M2284.71,2500c0,0 342.83,-435.828 679.482,-320.555c336.651,115.273 516.005,48.686 653.485,180.558c137.481,131.872 415.24,139.997 415.24,139.997l-1748.21,0Z" style="fill:#caffd0;"/><path d="M0,1610.07c0,0 179.46,-51.24 269.493,98.152c90.034,149.392 66.028,212.608 66.028,212.608c-0,-0 -29.574,91.512 -0,132.656c29.574,41.144 63.407,57.335 136.968,86.581c73.561,29.247 146.164,43.496 160.658,109.477c14.495,65.98 58.117,121.572 58.117,121.572l86.256,62.963l67.268,65.922l-844.788,-0l0,-889.931Z" style="fill:#c978af;"/><path d="M3550.55,0c-0,0 72.438,93.016 143.519,182.175c64.985,81.511 161.336,92.583 161.336,92.583l96.129,0c-0,0 73.514,-4.937 73.514,70.473c0,75.41 -89.635,138.582 0,220.508c89.636,81.926 241.616,143.204 241.616,143.204l-0,-708.943l-716.114,0Z" style="fill:#c978af;stroke:#c978af;stroke-width:4.17px;"/><path d="M-377.076,339.993c0,-0 124.503,125.744 461.948,142.324c337.444,16.581 429.955,-1.233 429.955,-1.233c-0,-0 194.48,-75.265 14.507,-330.527c-179.974,-255.263 -40.577,-456.849 -40.577,-456.849l-865.833,646.285Z" style="fill:#caffd0;stroke:#c9e4e7;stroke-width:4.17px;"/><path d="M-57.854,957.111c0,-0 95.896,-18.682 212.007,-208.118c116.111,-189.435 138.026,-250.94 138.026,-250.94c0,-0 29.3,-145.489 -141.917,-149.946c-171.217,-4.457 -215.695,-171.942 -215.695,-171.942l7.579,780.946Z" style="fill:#caffd0;"/></svg>